<?xml version="1.0" encoding="UTF-8"?>
<svg xmlns="http://www.w3.org/2000/svg" viewBox="0 0 1920 1080">
  <g>
    <g>
      <path d="M1074.543,384.229l.792-.533c35.124,19.543,71.665,34.952,110.406,45.612,11.128,3.062,32.899,5.433,41.806,9.197,1.608.679,3.22.923,3.484,3.066v161.65c-7.186,64.841-100.781,130.613-154.682,158.863-54.238-27.642-148.317-93.994-155.379-158.863l.488-164.119c53.636-8.907,106.077-27.251,153.086-54.872Z" fill="#cdd1de" stroke="#1e2433" stroke-linecap="round" stroke-linejoin="round" stroke-width="7.664"/>
      <g>
        <path d="M1072.864,414.257c2.695-.694,3.576-.694,6.271,0,9.14,2.354,26.691,13.171,36.929,17.419,17.82,7.394,35.766,13.904,54.348,19.091,6.135,1.713,32.06,5.927,34.784,7.497.826.476,1.549.636,1.583,1.813l-.274,133.387c-4.123,47.328-56.773,91.382-93.227,117.335-5.32,3.787-32.37,22.163-36.754,22.627-3.655.387-28.75-16.461-33.619-19.84-36.091-25.048-91.412-69.634-96.85-115.942v-139.465h0c34.105-4.019,66.136-16.729,97.547-29.989,8.081-3.411,22.035-12.073,29.264-13.935Z" fill="#f5f7fb" stroke="#1e2332" stroke-linecap="round" stroke-linejoin="round" stroke-width="7.664"/>
        <g>
          <path d="M1075.303,647.813c2.468-1.442,5.113,11.685,7.664,12.542,1.274.428,12.777-.094,12.89,1.742-1.301,1.26-9.547,7.567-9.755,8.361-.69,2.63,3.931,13.371,1.045,14.284-10.06-7.146-12.87-7.117-22.993,0,2.247-12.597,2.678-14.895-8.013-22.645.271-2.02,11.409-1.205,12.89-1.742,1.432-.519,5.358-10.52,6.271-12.542Z" fill="#1e2432"/>
          <path d="M977.059,549.569c5.908,11.596,5.706,13.63,19.858,14.284.402.53-9.39,7.514-9.755,9.058-.547,2.315,3.458,12.168,1.742,13.587-10.41-5.925-13.73-7.396-23.69.697-1.129-.492,2.599-12.737,2.439-13.587-.209-1.11-10.967-9.008-10.451-9.755,12.939-1.044,15.201-2.126,19.858-14.284Z" fill="#1e2432"/>
          <path d="M1076,435.996c1.507-.035,5.168,12.049,6.271,12.542,1.46.653,13.142.247,13.587,1.742-1.205,1.21-9.537,7.757-9.755,8.361-.921,2.557,3.324,13.027,1.742,14.284-10.727-5.902-13-7.244-23.69,0,2.731-13.006,2.147-14.512-8.013-22.645,13.802-.972,14.3-2.344,19.858-14.284Z" fill="#1e2432"/>
          <path d="M1174.244,550.266c2.298-.749,5.042,10.82,6.968,11.845,1.751.932,12.853.555,13.587,1.742-1.204,1.211-9.538,7.756-9.755,8.361-.996,2.783,3.619,14.298,1.045,14.98-9.454-7.945-12.791-6.427-22.993-1.394-1.372-1.04,2.488-10.709,1.742-12.89-.208-.608-8.849-6.751-9.755-8.361,12.014-2.981,14.667-1.029,19.161-14.284Z" fill="#1e2432"/>
          <path d="M997.962,474.318c6.906,10.657,5.097,13.732,19.858,13.587.868,1.073-8.657,7.594-9.058,9.058-.819,2.989,3.447,13.638,1.045,14.284-9.557-6.865-13.487-7.772-22.993,0-1.526-1.128,2.242-11.477,1.742-13.587-.274-1.157-8.705-6.955-9.755-9.058,12.595-1.966,14.841-1.566,19.161-14.284Z" fill="#1e2432"/>
          <path d="M1004.233,619.943c1.989-.215,5.031,11.017,6.271,11.845,1.988,1.328,13.584.612,14.284,1.742-1.429,1.389-10.222,8.09-10.451,9.058-.347,1.463,3.995,13.904,1.742,14.284-9.879-7.418-13.433-7.316-23.69-.697-.905-.439,2.672-11.827,2.439-12.89-.15-.683-8.997-7.941-10.451-9.058,13.474-2.283,14.296-1.537,19.858-14.284Z" fill="#1e2432"/>
          <path d="M1152.644,474.318c2.589-.902,4.947,11.607,7.664,12.542,1.587.546,11.505.194,12.193,1.045-.574,3.058-8.571,7.155-9.058,9.058-.697,2.725,3.764,13.563,1.045,14.284-9.336-7.407-13.588-7.257-22.993,0,2.659-12.874,2.264-14.661-8.013-22.645.26-1.94,11.338-1.147,12.89-1.742,1.351-.518,5.29-10.634,6.271-12.542Z" fill="#1e2432"/>
          <path d="M1147.07,619.943c2.001-.216,4.832,10.909,6.271,11.845,1.895,1.233,12.678.545,13.587,1.742-.944,1.931-9.559,8.239-9.755,9.058-.329,1.374,3.749,13.24,1.742,13.587-10.147-6.042-12.941-7.168-22.993,0-1.691-1.379,2.084-11.475,1.742-12.89-.163-.672-9.041-7.879-10.451-9.058,13.646-2.258,14.201-1.424,19.858-14.284Z" fill="#1e2432"/>
          <g>
            <path d="M1045.065,536.331c10.474-.689,61.513-1.92,68.908,0,6.229,1.618,7.625,4.361,8.361,10.451.604,4.998.148,59.689-.697,62.709-1.609,5.754-4.618,5.903-9.755,6.828-6.037,1.087-73.183.811-76.644-.836-2.117-1.007-3.736-2.357-4.599-4.599.693-10.34-2.936-65.051.697-70.373,1.309-1.918,3.163-3.327,5.295-4.181.191-.076.478.073.697,0,1.325-.441,5.762.13,7.736,0Z" fill="#fcd042" stroke="#1e2333" stroke-linecap="round" stroke-linejoin="round" stroke-width="6.968"/>
            <path d="M1073.341,561.878c13.763-4.095,16.671,17.364,2.8,20.132l-.664.429-.598-.447c-8.403-2.306-12.389-16.885-1.537-20.113Z" fill="#f5f7fb"/>
          </g>
        </g>
      </g>
    </g>
    <g>
      <line x1="1075.477" y1="582.438" x2="1075.685" y2="599.736" fill="none" stroke="#1f2433" stroke-linecap="round" stroke-linejoin="round" stroke-width="7.664"/>
      <path d="M1075.477,582.438c.203-.016.395-.375.664-.429,13.871-2.768,10.964-24.226-2.8-20.132-10.852,3.228-6.866,17.807,1.537,20.113.31.085.49.456.598.447Z" fill="none" stroke="#1f2433" stroke-linecap="round" stroke-linejoin="round" stroke-width="7.664"/>
      <path d="M1045.576,533.462c-11.27-55.606,72.356-55.466,60.786.048" fill="none" stroke="#1e2333" stroke-linecap="round" stroke-linejoin="round" stroke-width="6.968"/>
    </g>
  </g>
</svg>