<?xml version="1.0" encoding="utf-8" ?>
<svg xmlns="http://www.w3.org/2000/svg" xmlns:xlink="http://www.w3.org/1999/xlink" width="1024" height="1024">
	<path fill="#263544" d="M909.199 437.865C909.421 437.958 909.649 438.039 909.865 438.145C910.772 438.59 911.117 438.896 911.6 439.786C913.918 444.065 915.252 449.474 916.826 454.105C921.205 466.983 924.97 480.061 929.654 492.833C938.786 493.105 982.855 491.881 986.459 494.02C987.257 495.201 987.273 495.226 987.183 496.647C983.528 500.634 978.013 503.752 973.572 506.9C962.261 514.917 950.971 523.442 938.729 529.988C941.387 539.748 953.792 578.53 952.863 584.908C952.39 585.552 952.272 586.081 951.422 586.222C949.814 586.489 948.239 585.642 946.881 584.867C942.142 582.161 937.734 578.344 933.32 575.096Q920.244 565.46 907.027 556.019C901.918 560.271 865.809 586.088 861.961 586.07C860.508 586.064 860.063 585.655 859.019 584.788L859.603 583.87L859.09 583.987C860.654 577.272 863.401 570.646 865.664 564.124L877.664 529.683C871.621 525.974 833.396 501.065 832.213 497.615C831.696 496.108 832.204 495.046 833.021 493.861C836.98 492.023 880.244 492.868 888.124 492.69C894.185 475.802 899.452 457.515 905.937 440.996C906.772 438.87 907.214 438.794 909.199 437.865Z"/>
	<path fill="#F6C85C" d="M909.062 452.354C912.657 458.66 922.608 490.918 924.386 498.91Q949.138 498.777 973.885 499.318C965.489 505.014 957.194 510.868 948.764 516.511C943.026 520.351 936.844 523.848 931.475 528.174Q937.927 551.904 945.101 575.425C935.719 569.371 914.467 555.152 907.104 547.554Q888.288 561.785 868.788 575.062C874.665 559.116 879.955 542.917 885.611 526.887C872.005 517.405 858.01 508.524 844.284 499.211C859.428 500.541 877.963 499.912 893.204 498.979C898.166 483.503 903.009 467.429 909.062 452.354Z"/>
	<path fill="#263544" d="M909.727 490.876C911.02 499.493 910.299 508.435 909.785 517.093C916.457 515.626 923.169 514.346 929.987 513.804C923.723 516.791 917.558 518.182 910.652 518.694C912.649 522.075 921.675 536.872 921.348 539.834C917.33 533.506 912.676 527.02 909.517 520.227C909.653 519.329 909.73 518.553 909.667 517.646L908.472 517.571C907.774 518.339 908.218 519.935 907.773 521.215C904.355 526.468 900.931 531.699 896.92 536.528C897.99 531.352 904.348 523.263 907.445 518.827C898.152 516.482 889.328 513.566 881.765 507.484C890.132 511.183 898.913 514.101 907.504 517.245C907.659 508.392 909.159 499.695 909.727 490.876Z"/>
	<path fill="#263544" d="M113.36 437.959C114.437 437.951 115.34 438.079 116.392 438.309C119.471 441.025 134.175 485.302 136.555 492.022C149.426 492.618 162.555 491.708 175.449 491.444C181.098 491.329 187.733 490.561 193.255 491.765C194.298 491.992 194.656 491.946 195.267 492.868C193.021 499.063 153.771 524.217 146.248 529.045C150.573 539.767 154.139 550.91 158.062 561.794C160.401 568.285 163.465 574.985 165.237 581.624C165.583 582.922 165.838 584.46 165.194 585.699C164.833 586.393 164.821 586.167 163.914 586.408C156.424 584.787 128.771 564.843 121.234 559.172L116.325 555.914L87.7776 575.519C82.9065 578.872 77.8323 583.004 72.4992 585.566C71.3632 586.112 70.373 586.741 69.1581 586.328C68.4448 584.378 68.6324 582.49 68.9706 580.465C70.0228 574.166 72.6026 567.638 74.4491 561.492L83.6592 530.115C81.421 528.953 79.2648 527.596 77.1295 526.254C70.7593 522.25 38.5647 502.774 37.1428 496.601C37.4427 495.619 37.5903 494.997 38.3523 494.259C40.5434 492.135 88.5669 491.968 95.4459 491.97C99.359 480.211 102.773 468.218 106.568 456.404C108.525 450.31 110.206 443.536 113.36 437.959Z"/>
	<path fill="#F6C85C" d="M115.082 451.854C117.481 457.106 119.24 462.78 121.195 468.216C124.814 478.279 128.388 488.308 131.329 498.595Q156.064 497.777 180.81 497.419C167.933 508.111 153.169 517.669 139.04 526.612C143.747 542.676 149.979 558.334 155.16 574.261C142.374 565.783 129.473 557.27 116.935 548.435L116.279 548.012C110.178 552.653 103.583 556.73 97.3074 561.139C90.6562 565.811 84.2641 570.83 77.5513 575.419C78.7776 569.116 80.8073 562.918 82.5719 556.747Q86.6912 542.44 90.6403 528.086C77.8281 517.922 63.2767 509.931 50.3268 499.919C66.9451 497.835 84.098 498.211 100.835 497.59C102.694 488.694 105.872 479.938 108.607 471.27C110.631 464.858 112.339 457.974 115.082 451.854Z"/>
	<path fill="#2C2C2B" d="M113.216 491.938C114.611 493.438 116.792 512.682 116.715 515.644C123.521 514.611 130.402 513.705 137.283 513.395C130.791 515.139 124.566 516.513 117.859 517.093C121.98 524.008 126.528 531.009 129.581 538.473L124.313 531.296C121.191 526.745 118.651 521.382 114.963 517.3C106.787 517.09 97.8145 515.883 90.5339 512.007C98.3843 513.984 107.105 514.587 115.139 515.724C114.183 507.799 113.267 499.934 113.216 491.938Z"/>
	<path fill="#263544" d="M156.437 633.221L158.694 633.615C159.331 634.074 159.705 634.47 160.044 635.188C163.74 643.012 166.068 652.128 168.959 660.32C172.188 669.467 176.259 678.683 178.74 688.04C187.209 688.081 231.497 687.25 235.48 688.888C236.413 689.951 236.703 690.412 236.834 691.828C235.048 695.585 197.912 721.496 192.44 725.488C195.99 737.449 200.337 749.257 204.416 761.046C206.247 766.337 208.621 771.9 209.809 777.36C210.077 778.592 210.3 779.505 209.788 780.706C208.791 781.745 208.315 782.267 206.882 782.672C199.102 779.929 168.363 756.798 159.247 750.613C150.98 758.227 141.482 764.927 132.579 771.794C127.058 776.053 121.687 780.857 115.923 784.746C115.112 785.293 114.519 785.457 113.568 785.587C112.423 785.285 112.475 785.524 111.779 784.452C111.621 776.608 124.904 736.464 128.103 725.757C120.401 721.053 83.1979 699.798 79.8289 695.785C78.8893 694.665 78.811 694.095 78.9071 692.678C79.9852 691.506 80.2037 691.526 81.7799 691.268C87.33 690.36 93.6704 690.637 99.3114 690.383Q118.639 689.605 137.947 688.424C141.722 677.042 151.983 639.968 156.437 633.221Z"/>
	<path fill="#F6C85C" d="M157.449 648.775C161.658 654.739 171.039 685.678 173.524 694.146C189.868 694.473 206.207 694.39 222.552 694.584C214.839 701.452 192.587 718.821 184.08 723.167C189.942 739.298 195.596 755.61 201.141 771.856C186.896 762.949 173.174 752.274 159.588 742.361C146.672 752.138 134.791 763.514 121.334 772.596C124.862 756.694 131.38 738.804 135.831 722.667C127.762 718.842 120.094 713.308 112.432 708.665C106.077 704.814 99.323 701.427 93.2595 697.143C109.794 695.487 126.579 695.046 143.185 694.559C148.174 679.475 151.593 663.537 157.449 648.775Z"/>
	<path fill="#263544" d="M300.83 112.727C302.179 113.281 303.089 113.82 303.944 115.049C307.364 119.965 309.898 125.99 312.655 131.339C318.381 142.446 324.022 153.628 330.081 164.558C335.877 163.92 380.046 158.655 381.923 159.221C382.385 159.36 382.778 159.669 383.206 159.893C383.863 160.97 384.285 161.467 384.056 162.803C383.411 166.561 349.149 196.75 343.797 201.266C347.36 207.678 369.244 248.926 368.522 252.669C368.277 253.935 368.18 254.232 367.102 254.885C359.498 254.031 329.058 238.138 320.703 233.854L315.57 231.298Q304.169 242.2 292.464 252.775C288.276 256.559 284.042 260.804 279.402 264.019C277.805 265.125 276.484 265.769 274.568 266.061C273.752 265.805 273.222 265.835 272.703 265.093C271.772 263.759 271.759 262.149 271.856 260.577C272.196 255.066 273.792 249.322 274.793 243.867Q277.955 226.046 281.442 208.286C275.445 205.1 233.981 183.634 232.174 181.695C231.261 180.715 231.211 180.127 231.233 178.838C232.11 177.907 232.494 177.64 233.768 177.275C240.24 175.423 247.929 174.92 254.638 173.86C265.325 172.172 276.279 169.79 287.057 168.989L294.456 134.278C295.762 128.159 296.732 121.382 298.839 115.499C299.276 114.28 299.902 113.604 300.83 112.727Z"/>
	<path fill="#F6C85C" d="M302.412 127.732C305.296 130.291 322.244 165.117 325.577 171.553C332.884 169.761 340.875 169.485 348.352 168.841C356.114 168.173 363.866 167.271 371.644 166.822C360.237 177.89 348.448 189.404 336.024 199.306C343.081 214.706 351.653 229.381 358.611 244.832C345.442 238.991 332.514 231.98 319.706 225.356L315.002 223.339C309.226 227.573 304.015 232.917 298.79 237.803C292.352 243.825 285.764 249.744 279.653 256.097C282.123 238.846 285.987 221.83 288.237 204.519C274.511 196.555 260.174 189.23 246.152 181.783C261.41 178.353 277.549 176.747 293.023 174.347Q297.914 151.079 302.412 127.732Z"/>
	<path fill="#263544" d="M332.043 182.97L332.548 183.329C326.389 186.988 320.366 190.86 313.676 193.486C312.904 192.793 313.245 193.231 312.755 192.1C315.001 188.863 327.742 184.668 332.043 182.97Z"/>
	<path fill="#2C2C2B" d="M288.459 188.5C293.814 188.795 304.793 190.378 309.645 192.259L310.022 193.315C309.837 193.376 309.657 193.452 309.468 193.498C303.42 194.975 293.533 191.849 288.459 188.5Z"/>
	<path fill="#263544" d="M309.465 169.315C309.534 169.491 309.609 169.665 309.671 169.844C311.395 174.824 314.385 186.437 312.32 191.089C312.098 190.877 311.84 190.696 311.653 190.452C308.352 186.141 308.845 174.402 309.465 169.315Z"/>
	<path fill="#263544" d="M719.733 112.8C720.997 112.829 722.022 112.98 723.243 113.308C723.878 113.795 724.283 114.219 724.561 114.988C726.348 119.92 726.983 125.903 728.031 131.056C730.525 143.315 732.792 155.684 735.734 167.844C745.933 170.471 756.889 171.936 767.308 173.434C774.805 174.513 786.534 174.633 793.123 178.066C793.733 179.195 793.504 179.274 793.299 180.482C790.403 184.187 766.666 193.984 760.193 197.427Q751.74 201.855 743.967 207.389C745.862 219.089 747.361 230.847 749.231 242.549C750.118 248.1 753.126 260.13 752.66 265.224C752.545 266.48 751.792 267.184 750.827 267.901C745.366 267.016 713.342 235.116 706.569 229.603L706.083 229.212C693.884 237.136 677.401 245.907 664.289 252.504C661.713 253.8 657.492 256.015 654.67 255.079C652.863 249.266 675.102 207.138 678.985 199.496C669.581 191.823 660.749 183.194 651.638 175.149C648.021 171.954 642.74 168.529 639.803 164.809C639.069 163.879 638.982 163.363 638.829 162.232C639.278 160.731 639.416 160.476 640.543 159.392C648.123 158.392 662.322 160.583 670.592 161.221C678.726 161.849 687.075 162.001 695.151 163.048C698.156 155.596 701.896 148.355 705.396 141.126C710.006 131.607 714.541 122.02 719.733 112.8Z"/>
	<path fill="#F6C85C" d="M719.742 125.88C722.793 130.387 728.461 165.482 729.837 173.428C745.8 176.79 762.104 178.759 778.242 181.103C772.786 184.254 766.936 186.781 761.31 189.625Q748.367 196.165 736.183 204.029C740.497 220.518 741.393 238.119 745.006 254.834C731.899 244.887 719.185 232.922 707.522 221.338C706.185 221.098 705.383 221.838 704.203 222.446C691.291 230.411 677.869 237.438 664.877 245.257C671.218 228.807 680.297 213.532 687.166 197.347Q669.271 181.74 651.732 165.733C660.059 167.215 668.632 167.681 677.053 168.365C684.413 168.963 691.764 169.784 699.143 170.096C705.909 155.306 713.125 140.739 719.742 125.88Z"/>
	<path fill="#2C2C2B" d="M685.974 181.785C693.94 183.583 701.316 186.691 708.699 190.099L706.92 191.802C699.772 188.88 692.885 185.226 685.974 181.785Z"/>
	<path fill="#2C2C2B" d="M713.969 191.788C721.863 190.126 729.854 187.847 737.825 186.719C730.925 190.299 722.847 193.043 715.056 193.682L713.969 191.788Z"/>
	<path fill="#263544" d="M708.699 190.099L710.844 190.693Q711.967 178.992 713.266 167.31L713.702 166.982C714.518 173.587 712.443 186.622 713.969 191.788L715.056 193.682C716.158 200.523 721.943 211.681 724.342 218.933C721.647 217.573 713.884 197.172 712.264 193.283C707.96 200.794 701.446 206.579 695.254 212.498C699.034 205.756 705.313 199.76 709.927 193.485C709.192 192.483 708.054 192.27 706.92 191.802L708.699 190.099Z"/>
	<path fill="#263544" d="M866.031 634.875C867.489 634.954 868.39 635.022 869.733 635.671C872.376 640.38 873.721 647.068 875.382 652.269Q881.342 670.516 886.884 688.895C897.638 688.839 908.433 689.557 919.185 689.859C926.94 690.077 935.174 689.653 942.829 690.757C944.168 690.95 945.134 691.09 946.183 692.013C946.486 692.732 946.815 693.068 946.593 693.867C946.219 695.212 945.297 696.067 944.241 696.906C937.478 702.28 928.926 706.415 921.457 710.796C912.973 715.772 904.711 721.124 896.177 726.009C900.101 736.409 902.802 747.598 905.996 758.263C908.204 765.639 911.103 773.096 912.832 780.565C913.193 782.124 913.387 783.432 912.977 784.989C912.478 785.409 911.99 786.054 911.303 786.091C910.224 786.149 909.298 785.614 908.424 785.049C903.225 781.689 898.261 777.336 893.309 773.596C883.422 766.128 873.254 758.866 863.901 750.732C861.144 751.325 853.432 758.355 850.851 760.3C845.932 764.008 816.835 785.535 812.908 785.263L812.417 784.44C812.152 777.013 828.759 736.191 832.205 725.803C825.927 720.963 788.534 695.112 786.954 690.839C787.271 689.966 787.444 689.449 788.149 688.802C790.699 686.457 837.423 688.032 843.925 688.21C846.92 679.796 850.656 671.491 853.965 663.185C856.79 656.091 861.797 640.504 866.031 634.875Z"/>
	<path fill="#F6C85C" d="M866.724 648.87C868.89 651.101 880.331 689.195 881.962 695.022C898.844 695.974 915.851 695.691 932.7 696.997Q919.694 704.666 906.771 712.473C900.777 716.064 894.756 720.077 888.224 722.613C893.43 739.398 898.139 756.339 903.595 773.046C890.503 762.71 877.006 752.899 863.996 742.468C859.039 745.021 854.212 749.425 849.706 752.771Q836.019 762.937 822.133 772.829C828.347 756.596 834.391 740.035 840.074 723.6C827.356 713.218 813.054 704.671 800.578 694.121C816.508 693.878 832.569 694.543 848.514 694.654C855.309 679.756 860.903 664.169 866.724 648.87Z"/>
	<path fill="#2C2C2B" d="M861.687 711.524C854.519 711.032 846.79 709.184 840.448 705.75C847.932 707.512 855.51 708.659 863.135 709.587C862.516 710.249 862.05 710.683 861.687 711.524Z"/>
	<path fill="#263544" d="M864.994 692.663C866.265 697.994 866.035 704.101 866.389 709.585C873.399 709.098 880.297 707.931 887.192 706.612C880.793 709.74 874.528 710.694 867.546 711.795C870.949 718.521 874.192 725.267 877.221 732.17C871.794 726.276 868.638 717.948 864.788 710.971C861.556 718.922 858.35 725.263 852.64 731.761C854.698 727.682 861.825 715.691 861.687 711.524C862.05 710.683 862.516 710.249 863.135 709.587L864.193 709.143C865.388 703.935 864.193 698.058 864.994 692.663Z"/>
	<path fill="#263544" d="M874.894 234.331C875.849 234.541 876.768 234.838 877.702 235.126C880.886 238.451 892.433 283.532 894.756 290.99C900.631 290.917 950.422 291.416 953.583 292.497C955.062 293.002 955.552 293.702 956.192 295.072L955.523 295.017L955.889 295.632C952.061 299.879 945.679 303.024 940.943 306.206L906.588 329.168C912.29 341.433 915.578 354.84 919.427 367.762C920.801 372.375 922.805 376.919 923.86 381.601C924.144 382.864 924.49 384.501 923.917 385.727C923.702 386.188 923.616 386.21 923.101 386.291C921.434 386.552 919.586 385.664 918.136 384.929C913.641 382.649 909.359 379.089 905.211 376.192Q891.616 366.767 878.198 357.09C877.426 356.559 876.073 355.296 875.05 355.599C872.144 356.459 867.893 360.364 865.316 362.155C860.332 365.621 831.799 385.625 828.722 385.671C827.249 385.693 827.112 385.467 826.205 384.45C825.904 383.064 825.78 381.951 826.079 380.549C827.285 374.886 829.909 368.921 831.689 363.357Q837.408 345.781 842.386 327.981C834.392 322.884 800.196 300.541 797.312 294.954C796.688 293.746 796.741 293.252 797.183 292.01C799.689 290.565 848.204 290.481 854.431 290.521C857.816 279.727 861.869 269.103 865.547 258.401C867.883 251.603 869.763 244.347 872.552 237.74C873.125 236.383 873.868 235.376 874.894 234.331Z"/>
	<path fill="#F6C85C" d="M875.186 248.882C877.013 251.16 888.384 291.364 889.856 297.194C906.888 296.799 924.431 297.291 941.442 298.318C927.554 307.889 912.796 316.409 899.359 326.605C905.371 342.197 910.898 358.846 915.036 375.053C902.207 366.702 889.965 356.98 877.441 348.13C877.157 347.919 876.616 347.499 876.306 347.361C875.218 346.877 874.888 347.432 874.032 348.053C861.572 357.087 848.481 365.777 835.23 373.604C840.929 357.644 845.544 341.34 850.157 325.039C836.352 316.419 823.088 306.89 809.802 297.496C826.478 297.554 843.205 296.772 859.885 296.5C861.307 289.296 864.22 282.311 866.61 275.382Q871.141 262.211 875.186 248.882Z"/>
	<path fill="#2C2C2B" d="M872.709 286.915C874.461 289.079 875.045 312.677 875.038 317.014C882.761 314.214 891.116 312.532 899.084 310.548C890.824 314.388 882.443 317.207 873.493 318.935L873.656 318.648C870.958 323.995 862.717 337.378 857.988 340.727C862.128 333.026 866.902 325.158 872.527 318.459C864.689 315.605 856.757 311.831 849.665 307.435C857.524 310.123 865.391 313.24 872.995 316.58C872.665 306.731 871.889 296.755 872.709 286.915Z"/>
	<path fill="#263544" d="M511.214 55.4524C511.737 55.6602 512.493 55.9102 512.948 56.276C516.478 59.1175 529.818 103.283 531.318 110.996C540.113 111.061 581.007 111.967 587.423 113.866C588.403 114.836 588.402 115.102 588.71 116.468C587.731 120.425 550.319 146.112 544.192 149.896C545.983 154.758 562.068 204.731 561.999 205.546C561.875 207.026 561.544 207.209 560.49 208.102C559.062 208.287 558.042 208.014 556.761 207.412C548.947 203.737 529.421 188.982 522.211 183.512C520.161 181.956 513.582 176.179 511.63 175.748C511.499 175.719 511.362 175.726 511.227 175.715C503.133 182.756 493.62 188.938 484.9 195.223C478.976 199.494 472.828 204.845 466.304 208.055C464.907 208.189 464.323 207.881 463.102 207.294C461.927 202.803 477.476 158.341 479.993 150.06C471.427 142.614 456.397 133.603 446.557 127.114C442.257 124.279 436.24 121.254 433.015 117.296C432.74 115.829 432.733 115.642 433.281 114.259C436.089 112.546 482.38 111.555 490.148 111.092Q496.31 94.0099 502.1 76.7977C504.225 70.6227 506.09 63.9225 508.987 58.0836C509.572 56.9058 510.18 56.2434 511.214 55.4524Z"/>
	<path fill="#F6C85C" d="M511.426 70.3182C513.192 71.5971 525.021 111.802 526.614 117.117C532.316 117.888 538.298 117.893 544.047 118.161C554.683 118.659 565.289 119.11 575.938 119.126C563.041 128.645 549.956 138.846 536.028 146.794Q543.474 171.841 551.702 196.643C538.765 187.077 523.568 178.557 512.563 166.805C512.126 166.546 511.659 166.771 511.171 166.852L511.608 166.967C510.786 167.511 510.251 168.286 509.627 169.04L508.938 168.529C507.145 171.753 477.281 192.469 472.092 196.26C476.923 179.613 483.119 163.379 487.905 146.726C474.144 139.12 461.48 129.071 448.611 120.076C454.313 119.236 460.298 119.222 466.057 118.932L495.641 117.426Q503.398 93.8269 511.426 70.3182Z"/>
	<path fill="#FAD971" d="M509.07 134.731L511.481 133.655C512.97 133.939 514.512 134.16 515.956 134.617L515.593 134.867C514.377 135.718 513.357 136.616 512.32 137.675L511.347 137.752C510.255 136.804 509.763 135.973 509.07 134.731Z"/>
	<path fill="#2C2C2B" d="M488.541 129.932C495.877 130.86 504.536 130.971 511.522 133.115L511.481 133.655L509.07 134.731C502.352 134.85 494.841 132.045 488.541 129.932Z"/>
	<path fill="#2C2C2B" d="M511.522 133.115C509.742 125.287 509.804 116.768 510.465 108.802C511.509 116.75 512.404 124.755 513.918 132.628C521.005 132.107 528.089 130.549 535.163 130.313C531.38 131.456 519.358 135.849 515.956 134.617C514.512 134.16 512.97 133.939 511.481 133.655L511.522 133.115Z"/>
	<path fill="#263544" d="M147.745 233.819C148.436 233.913 149.375 233.952 150.014 234.212C152.528 235.234 167.591 284.682 170.009 291.011C180.322 291.022 190.661 291.489 200.979 291.618C207.325 291.697 213.963 291.24 220.264 291.822C222.051 291.988 224.11 292.203 225.548 293.376C226.231 293.933 226.08 294.353 226.185 295.16C225.507 296.91 224.514 298.022 223.135 299.287C218.812 303.252 213.433 306.541 208.648 309.949C199.619 316.382 190.499 322.83 181.856 329.777C184.028 337.824 198.301 381.927 195.979 386.357C195.79 386.381 195.603 386.426 195.413 386.428C189.597 386.513 155.646 359.901 149.693 354.848C148.05 356.208 146.207 357.364 144.447 358.57C135.884 364.171 127.581 370.176 119.252 376.115C115.105 379.072 110.892 382.512 106.455 385.006C105.197 385.713 102.991 386.804 101.487 386.619C100.072 386.445 99.9552 386.129 99.2145 385.039C99.1235 378.249 113.083 339.15 115.917 328.683C109.676 324.749 69.6975 299.066 68.7091 295.448C68.3762 294.229 68.4923 293.499 69.0508 292.403C71.073 291.452 122.392 290.799 128.201 290.729C131.016 281.694 143.877 238.668 147.745 233.819Z"/>
	<path fill="#F6C85C" d="M148.784 248.83C151.166 251.433 162.109 289.998 163.872 296.938C180.045 297.086 196.612 297.382 212.742 298.441C201.077 308.975 186.855 316.517 175.029 327.022C178.004 342.511 183.279 360.216 188.044 375.392L161.483 355.889C157.436 352.91 153.208 349.084 148.711 346.874L147.594 347.407C142.525 351.508 137.007 355.022 131.671 358.762L109.104 374.894C113.366 358.532 119.265 342.505 122.992 326.017C108.837 317.128 95.6156 306.618 81.2907 298.001L133.981 296.857C138.433 280.808 143.285 264.55 148.784 248.83Z"/>
	<path fill="#263544" d="M147.149 316.576L145.655 317.772C139.679 318.984 128.898 313.622 123.748 311.008C128.105 311.749 143.852 316.025 146.795 315.132L147.149 316.576Z"/>
	<path fill="#263544" d="M171.855 310.656L172.1 310.736L171.902 311.195C164.326 314.959 158.156 317.471 149.691 318.645C149.415 318.266 149.312 317.844 149.158 317.404C151.387 314.949 167.71 311.723 171.855 310.656Z"/>
	<path fill="#2C2C2B" d="M146.795 315.132C146.073 307.498 147.148 299.239 149.051 291.832C149.715 300.778 148.536 308.838 148.166 317.674C148.277 317.782 148.39 317.887 148.498 317.997C151.339 320.88 159.036 332.93 160.243 336.69C155.256 331.218 150.977 325.669 148.102 318.77C147.796 318.035 147.464 317.308 147.149 316.576L146.795 315.132Z"/>
	<path fill="#263544" d="M511.509 228.923C512.4 228.956 513.657 228.923 514.452 229.354C515.371 229.852 532.146 248.405 535.459 251.526C562.506 277.002 593.082 296.316 626.74 311.85C664.116 329.101 704.573 339.211 744.818 347.186C751.669 348.544 758.586 350.231 765.474 351.293C772.11 352.316 779.365 352.661 785.837 354.416C787.256 354.801 788.257 355.27 789.37 356.221C791.264 361.439 790.214 395.34 790.217 402.759C790.254 492.255 788.401 590.903 760.037 676.553Q758.524 681.054 756.927 685.526Q755.33 689.998 753.651 694.439Q751.971 698.881 750.208 703.29Q748.446 707.699 746.602 712.075Q744.757 716.451 742.832 720.791Q740.906 725.132 738.9 729.435Q736.894 733.739 734.808 738.005Q732.722 742.271 730.557 746.497Q728.391 750.723 726.148 754.908Q723.904 759.093 721.583 763.235Q719.261 767.378 716.863 771.476Q714.465 775.574 711.991 779.627Q709.517 783.68 706.968 787.686Q704.419 791.693 701.795 795.65Q699.172 799.608 696.475 803.517Q693.778 807.425 691.009 811.282Q688.239 815.14 685.399 818.945Q682.558 822.75 679.647 826.501Q676.736 830.253 673.755 833.949Q670.775 837.646 667.726 841.286Q664.677 844.926 661.56 848.509Q658.444 852.092 655.261 855.616Q652.079 859.14 648.831 862.604Q645.583 866.068 642.272 869.471Q638.96 872.874 635.585 876.214Q632.211 879.555 628.774 882.832Q625.338 886.109 621.841 889.322Q618.344 892.534 614.788 895.681Q611.232 898.828 607.618 901.907Q604.004 904.987 600.333 907.999Q596.662 911.011 592.935 913.954Q589.209 916.897 585.428 919.77C562.903 937.121 538.615 953.416 513.166 966.196C512.561 966.473 511.899 966.8 511.212 966.763C508.372 966.61 499.977 961.352 497.156 959.811C457.964 938.392 422.023 910.48 390.106 879.321Q383.628 873.076 377.384 866.596Q371.141 860.116 365.14 853.411Q359.14 846.705 353.391 839.783Q347.641 832.86 342.151 825.731Q336.661 818.601 331.438 811.274Q326.215 803.947 321.265 796.433Q316.315 788.918 311.646 781.226Q306.977 773.534 302.594 765.675C250.229 672.796 236.3 583.067 235.067 478.133Q234.793 441.3 234.894 404.468C234.935 390.288 234.343 375.722 235.557 361.605C235.692 360.031 235.966 357.613 236.904 356.28C237.955 354.786 245.41 353.614 247.301 353.267C278.524 347.542 309.551 342.023 340.124 333.284C392.682 318.262 444.875 292.13 485.844 255.66C495.215 247.319 502.81 237.837 511.509 228.923Z"/>
	<path fill="#8C9DA3" d="M760.048 362.775C765.855 363.846 771.818 364.71 777.555 366.077C779.147 565.664 774.768 717.083 626.194 867.83C598.68 895.745 563.328 922.812 529.64 942.851C523.792 946.33 517.549 950.406 511.271 953.022C496.293 944.451 481.213 935.783 467.015 925.962C450.441 914.497 434.939 901.435 419.941 887.997C416.809 885.191 409.28 879.865 408.055 876.108C412.251 878.323 416.127 881.861 419.865 884.8C425.027 888.859 430.562 892.969 436.234 896.262C437.364 897.866 441.332 899.594 443.112 900.725C460.587 911.822 490.048 928.641 509.585 933.747C515.997 930.532 522.031 926.26 528.065 922.385Q547.449 909.843 565.733 895.745Q584.017 881.648 601.077 866.091C616.746 851.686 631.143 835.601 644.807 819.321C653.171 809.355 661.523 799.329 669.039 788.699C679.166 774.377 687.835 759.473 696.062 744.014Q700.927 735.015 705.374 725.803Q709.822 716.591 713.842 707.185Q717.862 697.778 721.446 688.197Q725.031 678.616 728.172 668.881C749.369 602.446 755.314 527.24 758.133 457.783C759.417 426.146 758.698 394.421 760.048 362.775Z"/>
	<path fill="#A7B2B8" d="M512.729 247.709C514.269 248.765 515.56 249.924 516.89 251.231C521.385 257.616 533.306 266.549 539.629 272.007C598.905 323.179 674.871 348.08 750.877 361.282C753.927 361.812 756.977 362.387 760.048 362.775C758.698 394.421 759.417 426.146 758.133 457.783C755.314 527.24 749.369 602.446 728.172 668.881Q725.031 678.616 721.446 688.197Q717.862 697.778 713.842 707.185Q709.821 716.591 705.374 725.803Q700.927 735.015 696.062 744.014C687.835 759.473 679.166 774.377 669.039 788.699C661.523 799.329 653.171 809.355 644.807 819.321C631.143 835.601 616.746 851.686 601.077 866.091Q584.017 881.648 565.733 895.745Q547.449 909.843 528.065 922.385C522.031 926.26 515.997 930.532 509.585 933.747C490.048 928.641 460.587 911.822 443.112 900.725C441.332 899.594 437.364 897.866 436.234 896.262C430.562 892.969 425.027 888.859 419.865 884.8C416.127 881.861 412.251 878.323 408.055 876.108Q392.963 862.943 379.29 848.31Q376.177 844.942 373.129 841.516Q370.081 838.09 367.098 834.607Q364.115 831.124 361.199 827.585Q358.282 824.046 355.433 820.453Q352.584 816.859 349.804 813.212Q347.023 809.565 344.312 805.867Q341.602 802.168 338.961 798.419Q336.321 794.669 333.752 790.87Q331.183 787.072 328.686 783.225Q326.19 779.378 323.766 775.485Q321.343 771.592 318.994 767.654Q316.644 763.715 314.37 759.733Q312.096 755.751 309.897 751.727Q307.699 747.702 305.577 743.637Q303.455 739.571 301.41 735.467Q299.366 731.362 297.399 727.219Q295.433 723.076 293.545 718.897Q291.657 714.718 289.849 710.504Q288.04 706.29 286.312 702.042Q284.584 697.794 282.936 693.515Q281.289 689.235 279.722 684.925Q278.156 680.615 276.672 676.276Q275.187 671.937 273.785 667.571Q272.383 663.204 271.064 658.812Q269.745 654.42 268.509 650.004Q267.273 645.588 266.121 641.149Q264.969 636.711 263.902 632.251Q262.834 627.791 261.851 623.312Q260.867 618.833 259.969 614.336Q259.071 609.839 258.258 605.325Q257.445 600.812 256.718 596.284Q255.991 591.757 255.349 587.216C249.714 549.26 248.127 511.336 247.289 473.031Q245.762 419.369 247.523 365.715C267.512 360.883 288.002 358.222 308.057 353.649C370.07 339.508 425.923 318.623 476.73 279.254C489.432 269.412 500.887 258.519 512.729 247.709Z"/>
	<path fill="#FEFEFE" d="M512.729 247.709C514.269 248.765 515.56 249.924 516.89 251.231C507.627 265.273 493.214 277.029 479.934 287.222C422.37 331.407 354.255 356.215 283.754 370.757Q271.195 373.381 258.419 374.551C258.576 426.523 256.902 478.519 260.17 530.43C269.131 672.769 316.292 778.503 417.673 878.972C420.76 882.031 435.467 893.48 436.234 896.262C430.562 892.969 425.027 888.859 419.865 884.8C416.127 881.861 412.251 878.323 408.055 876.108Q392.963 862.943 379.29 848.31Q376.177 844.942 373.129 841.516Q370.081 838.09 367.098 834.607Q364.115 831.124 361.199 827.585Q358.282 824.046 355.433 820.453Q352.584 816.859 349.804 813.212Q347.023 809.565 344.312 805.867Q341.602 802.168 338.961 798.419Q336.321 794.669 333.752 790.87Q331.183 787.072 328.686 783.225Q326.19 779.378 323.766 775.485Q321.343 771.592 318.994 767.654Q316.644 763.715 314.37 759.733Q312.096 755.751 309.897 751.727Q307.699 747.702 305.577 743.637Q303.455 739.571 301.41 735.467Q299.366 731.362 297.399 727.219Q295.433 723.076 293.545 718.897Q291.657 714.718 289.849 710.504Q288.04 706.29 286.312 702.042Q284.584 697.794 282.936 693.515Q281.289 689.235 279.722 684.925Q278.156 680.615 276.672 676.276Q275.187 671.937 273.785 667.571Q272.383 663.204 271.064 658.812Q269.745 654.42 268.509 650.004Q267.273 645.588 266.121 641.149Q264.969 636.711 263.902 632.251Q262.834 627.791 261.851 623.312Q260.867 618.833 259.969 614.336Q259.071 609.839 258.258 605.325Q257.445 600.812 256.718 596.284Q255.991 591.757 255.349 587.216C249.714 549.26 248.127 511.336 247.289 473.031Q245.762 419.369 247.523 365.715C267.512 360.883 288.002 358.222 308.057 353.649C370.07 339.508 425.923 318.623 476.73 279.254C489.432 269.412 500.887 258.519 512.729 247.709Z"/>
	<path fill="#263544" d="M510.476 293.318C514.307 295.627 519.801 303.177 523.701 306.646C532.004 314.031 541.334 320.644 550.562 326.816C609.452 366.201 669.271 382.693 738.056 395.467C737.895 402.368 738.393 409.341 738.456 416.254Q738.623 440.502 738.464 464.75C737.997 511.806 734.607 559.488 726.344 605.841C709.404 700.867 654.772 795.96 581.37 858.826Q560.681 876.437 538.091 891.534C529.252 897.447 520.072 902.828 511.344 908.912C511.146 908.923 510.947 908.962 510.749 908.945C507.257 908.656 500.684 903.127 497.603 901.074Q486.07 893.549 474.961 885.41Q463.852 877.272 453.2 868.543Q442.548 859.815 432.385 850.522Q422.222 841.23 412.577 831.4C390.147 808.527 371.626 784.118 354.796 756.92Q346.464 743.588 339.128 729.683Q331.793 715.778 325.493 701.374C291.532 621.957 284.178 533.314 283.605 447.83C283.487 430.309 283.998 412.767 284.162 395.245C300.685 392.16 317.206 389.441 333.589 385.616C382.671 374.155 431.559 355.487 473.159 326.705C487.064 317.084 500.427 307.146 510.476 293.318Z"/>
	<path fill="#8C9DA3" d="M511.307 306.707C521.953 316.779 533.389 325.424 545.45 333.731C600.475 371.632 664.779 392.053 730.277 402.692Q730.876 425.491 730.636 448.296Q730.397 471.101 729.319 493.882Q728.241 516.664 726.326 539.39Q724.411 562.116 721.662 584.756C720.895 589.121 719.886 593.563 719.398 597.961C716.476 610.344 714.098 622.888 710.905 635.197Q706.665 651.016 701.227 666.464Q695.79 681.912 689.187 696.899C687.728 700.089 686.393 703.47 684.699 706.534L678.834 718.856C677.2 722.057 675.657 725.371 673.848 728.474L669.202 736.965C668.471 738.263 667.755 739.862 666.814 740.998C645.628 779.594 607.639 825.277 574.014 853.393C559.273 865.719 543.541 876.508 527.819 887.499L522.383 891.122C518.543 893.499 514.871 896.259 511.159 898.836C495.696 890.373 481.707 879.611 468.05 868.547C466.467 867.387 464.951 866.099 463.411 864.878C456.726 860.07 450.583 854.303 444.441 848.823Q430.224 836.289 416.998 822.713Q403.773 809.137 391.615 794.597C390.062 793.021 388.739 791.19 387.371 789.452L379.469 779.132C377.907 777.672 376.619 775.269 375.376 773.495C364.643 758.39 355.415 742.04 346.99 725.555C294.973 623.784 290.53 513.573 293.011 401.684C307.429 400.177 321.745 396.916 335.848 393.632C384.012 382.416 430.19 365.262 471.735 338.101C486.186 328.654 499.132 319.014 511.307 306.707Z"/>
	<path fill="#74868C" d="M690.361 619.78C690.525 619.838 690.693 619.886 690.853 619.953C692.309 620.562 693.57 621.363 694.169 622.868C693.859 624.653 693.387 624.924 692.18 626.218L690.321 625.857C689.158 624.856 688.997 624.698 688.531 623.245C688.901 621.385 689.153 621.139 690.361 619.78Z"/>
	<path fill="#74868C" d="M463.411 864.878C464.191 863.348 465.163 861.87 466.923 861.364C467.524 861.19 467.939 861.627 468.45 861.908C469.513 863.975 469.258 864.832 468.572 866.978Q468.318 867.765 468.05 868.547C466.467 867.387 464.951 866.099 463.411 864.878Z"/>
	<path fill="#74868C" d="M694.417 655.777L696.668 656.209C697.859 657.215 697.967 657.223 698.296 658.73C697.862 660.509 696.988 661.261 695.682 662.495C695.192 662.369 694.439 662.201 694.005 661.968C692.75 661.294 692.565 660.759 692.201 659.508C692.502 657.772 693.27 657.013 694.417 655.777Z"/>
	<path fill="#74868C" d="M692.346 668.862C692.66 668.88 692.974 668.894 693.287 668.915C695.13 669.04 696.352 669.44 697.584 670.833C697.835 672.509 697.336 673.507 696.691 674.999C695.909 675.018 695.024 675.066 694.26 674.879C693.182 674.615 691.842 673.549 691.536 672.472C691.078 670.863 691.648 670.199 692.346 668.862Z"/>
	<path fill="#74868C" d="M422.683 820.839C423.377 820.81 424.074 820.777 424.768 820.782C426.398 820.795 427.236 821.046 428.356 822.226C428.739 823.981 428.285 825.073 427.693 826.733C427.203 826.84 426.484 827.016 425.999 827.027C424.571 827.061 424.156 826.759 423.123 825.915C422.353 824.224 422.58 822.658 422.683 820.839Z"/>
	<path fill="#74868C" d="M710.315 607.462C711.322 607.454 712.27 607.517 713.273 607.591C714.44 608.339 714.458 608.335 714.901 609.645C714.508 611.375 713.797 612.278 712.675 613.63C711.83 613.543 710.455 613.52 709.683 613.105C708.449 612.442 708.34 612.077 708.014 610.833C708.394 609.216 709.162 608.554 710.315 607.462Z"/>
	<path fill="#74868C" d="M675.491 640.341C676.561 640.329 677.935 640.257 678.911 640.779C680.124 641.427 680.264 641.968 680.589 643.176C680.251 644.842 679.563 645.449 678.379 646.551C677.4 646.777 676.701 646.719 675.71 646.582C674.716 645.861 674.209 645.611 674.035 644.279C673.838 642.77 674.717 641.532 675.491 640.341Z"/>
	<path fill="#74868C" d="M640.479 397.648C641.494 397.676 642.618 397.79 643.53 398.282C644.573 398.844 645.144 399.555 645.295 400.737C645.498 402.326 644.153 403.977 643.329 405.234C642.563 405.262 641.741 405.257 641.034 404.892C639.93 404.323 639.341 403.448 639.136 402.236C638.847 400.528 639.702 399.09 640.479 397.648Z"/>
	<path fill="#74868C" d="M684.699 706.534C684.308 706.229 683.908 705.934 683.523 705.621C682.431 704.732 681.869 703.483 681.866 702.064C681.864 700.947 682.269 700.04 683.004 699.219C684.823 697.185 686.558 696.952 689.187 696.899C687.728 700.089 686.393 703.47 684.699 706.534Z"/>
	<path fill="#74868C" d="M684.742 680.007C686.112 679.892 687.038 679.715 688.253 680.509C688.674 681.199 689.148 681.682 689.163 682.521C689.201 684.681 688.069 686.175 686.598 687.612C685.716 687.456 684.605 687.128 683.903 686.567C682.941 685.798 682.446 684.769 682.533 683.54C682.636 682.076 683.786 680.993 684.742 680.007Z"/>
	<path fill="#74868C" d="M434.419 823.947C435.557 823.939 437.044 823.872 438.088 824.355C439.242 824.889 439.314 825.534 439.619 826.631C439.302 828.549 438.455 829.719 437.365 831.299C436.477 831.166 435.234 830.986 434.461 830.456C433.444 829.759 432.821 829.043 432.696 827.777C432.55 826.296 433.595 825.056 434.419 823.947Z"/>
	<path fill="#74868C" d="M544.959 346.781C545.866 346.851 546.869 346.908 547.667 347.393C548.689 348.014 549.356 349.303 549.409 350.471C549.482 352.085 548.582 353.169 547.583 354.302C546.3 354.21 544.888 354.165 543.817 353.337C542.895 352.624 542.452 351.741 542.504 350.572C542.576 348.975 543.911 347.829 544.959 346.781Z"/>
	<path fill="#74868C" d="M680.15 667.465C681.431 667.432 682.171 667.443 683.386 667.944C684.262 668.898 684.859 669.327 684.816 670.731C684.767 672.313 683.514 673.28 682.434 674.235C681.046 674.113 679.419 674.037 678.303 673.093C677.204 672.164 677.229 671.656 677.191 670.346C677.826 668.771 678.772 668.302 680.15 667.465Z"/>
	<path fill="#74868C" d="M500.594 867.992C501.963 867.953 503.663 867.748 504.711 868.83C505.526 869.672 505.847 870.543 505.647 871.703C505.38 873.255 504.241 874.124 503.104 875.048C502.021 874.899 500.496 874.521 499.603 873.836C498.502 872.993 498.438 872.576 498.173 871.305C498.518 869.686 499.417 869.035 500.594 867.992Z"/>
	<path fill="#74868C" d="M585.27 368.902C586.68 368.851 588.258 368.766 589.568 369.409C590.634 369.932 591.418 370.712 591.634 371.924C591.885 373.34 591.05 374.662 590.376 375.827C589.356 376.01 588.166 376.05 587.163 375.734C585.984 375.363 585.101 374.658 584.653 373.477C584.063 371.923 584.739 370.36 585.27 368.902Z"/>
	<path fill="#74868C" d="M509.948 858.301C511.207 858.287 512.735 858.183 513.762 859.056C514.3 859.513 514.743 860.128 514.788 860.84C514.936 863.144 513.403 864.59 511.947 866.138C510.653 866.373 510.551 866.212 509.356 865.612C508.514 864.433 508.104 863.607 508.007 862.135C507.878 860.194 508.752 859.558 509.948 858.301Z"/>
	<path fill="#74868C" d="M569.007 355.907C569.885 356.146 570.722 356.325 571.439 356.929C572.315 357.665 572.935 358.861 572.942 360.013C572.954 362.076 571.791 363.394 570.319 364.651C568.853 363.851 567.581 363.105 566.691 361.641C566.094 360.66 565.622 359.403 566.106 358.276C566.723 356.841 567.727 356.565 569.007 355.907Z"/>
	<path fill="#74868C" d="M509.91 321.953C511.483 321.939 512.757 321.956 514.064 322.955C515.112 323.756 515.718 324.758 515.771 326.086C515.838 327.738 515.11 328.655 514.137 329.85C512.854 329.863 511.737 329.515 510.652 328.83C509.555 328.137 508.78 327.044 508.595 325.747C508.358 324.085 509.019 323.22 509.91 321.953Z"/>
	<path fill="#74868C" d="M601.425 376.429C602.503 376.635 603.521 376.965 604.433 377.603C605.448 378.312 605.918 379.503 605.889 380.709C605.852 382.276 604.442 383.46 603.421 384.491C601.831 384.242 600.598 384.068 599.519 382.714C598.804 381.817 598.282 380.684 598.604 379.519C599.084 377.786 600.065 377.383 601.425 376.429Z"/>
	<path fill="#74868C" d="M491.495 858.317C492.804 858.355 494.027 858.366 495.212 859.027C496.471 859.73 496.802 860.642 497.222 861.93C496.973 863.748 496.643 864.276 495.404 865.629C493.787 865.606 492.35 865.512 491.047 864.436C490.1 863.653 489.515 862.793 489.49 861.523C489.461 860.109 490.563 859.202 491.495 858.317Z"/>
	<path fill="#74868C" d="M528.786 332.911C530.324 332.837 531.786 332.782 533.259 333.31C534.749 333.843 535.333 334.548 535.945 335.959C535.675 337.707 535.353 338.026 534.295 339.375C533.158 339.769 532.023 340.203 530.81 339.76C529.664 339.342 528.727 338.492 528.355 337.311C527.832 335.653 528.219 334.484 528.786 332.911Z"/>
	<path fill="#74868C" d="M673.848 728.474C673.072 727.921 671.961 727.375 671.537 726.506C670.926 725.252 671.103 723.801 671.523 722.507C672.048 720.891 673.705 718.821 675.389 718.304C676.878 717.847 677.469 718.287 678.834 718.856C677.2 722.057 675.657 725.371 673.848 728.474Z"/>
	<path fill="#74868C" d="M617.859 382.359C619.291 382.375 621.013 382.404 622.198 383.347C623.239 384.175 623.755 384.859 623.884 386.215C624.033 387.789 622.888 389.111 622.021 390.3C620.489 390.133 619.292 389.889 618.024 388.958C616.992 388.201 616.166 387.061 616.136 385.734C616.098 384.096 616.891 383.489 617.859 382.359Z"/>
	<path fill="#74868C" d="M697.056 606.282C698.101 606.498 699.188 606.67 700.051 607.353C701.083 608.168 701.736 609.024 701.759 610.391C701.795 612.517 700.539 613.812 699.181 615.245C698.112 615.065 697.313 614.923 696.433 614.252C695.348 613.425 694.713 612.4 694.64 611.007C694.525 608.785 695.6 607.715 697.056 606.282Z"/>
	<path fill="#74868C" d="M522.383 891.122C521.068 889.454 519.883 887.65 520.17 885.415C520.342 884.078 520.919 883.305 521.963 882.488C522.88 882.35 523.368 882.124 524.262 882.499C526.534 883.45 527.048 885.355 527.819 887.499L522.383 891.122Z"/>
	<path fill="#74868C" d="M501.099 879.894C502.242 879.904 503.776 880.058 504.723 880.818C505.432 881.386 505.839 881.847 506.002 882.742C506.411 884.986 505.211 886.508 504.005 888.255C502.641 888.23 501.192 888.129 500.159 887.088C499.204 886.126 498.777 885.134 498.826 883.771C498.885 882.096 500.039 881.055 501.099 879.894Z"/>
	<path fill="#74868C" d="M567.487 372.831C568.972 372.918 570.012 373.027 571.264 373.973Q571.453 374.115 571.625 374.278Q571.797 374.44 571.949 374.621Q572.101 374.802 572.232 374.999Q572.363 375.196 572.471 375.407Q572.578 375.617 572.662 375.839Q572.745 376.06 572.803 376.289Q572.86 376.519 572.892 376.753Q572.923 376.988 572.928 377.224C572.948 378.748 571.795 379.761 570.794 380.724C569.338 380.666 567.728 380.676 566.549 379.673C565.546 378.82 565.065 377.88 565.133 376.55C565.215 374.931 566.408 373.871 567.487 372.831Z"/>
	<path fill="#74868C" d="M578.415 382.414C580.326 382.75 582.28 383.219 583.279 385.076C583.831 386.102 583.904 387.126 583.459 388.204C582.877 389.617 581.757 390.084 580.483 390.683C579.351 390.381 578.078 389.89 577.174 389.111C576.091 388.178 575.965 387.398 575.761 386.045C576.192 384.285 577.087 383.589 578.415 382.414Z"/>
	<path fill="#74868C" d="M499.914 355.378C501.612 355.594 502.98 355.798 504.107 357.243C504.934 358.303 504.984 359.498 504.701 360.757C504.369 362.235 503.428 363.032 502.255 363.863C500.871 363.591 499.511 363.267 498.472 362.231C497.594 361.355 497.154 360.305 497.285 359.05C497.454 357.432 498.787 356.381 499.914 355.378Z"/>
	<path fill="#74868C" d="M660.156 394.484C661.657 394.445 663.617 394.196 664.82 395.282C665.448 395.849 665.807 396.399 665.892 397.233C666.121 399.482 664.913 400.731 663.589 402.379C662.192 402.31 660.944 402.131 659.876 401.12C658.914 400.21 658.288 399.149 658.313 397.784C658.343 396.099 659.105 395.609 660.156 394.484Z"/>
	<path fill="#74868C" d="M536.622 369.373C538.032 369.437 539.418 369.503 540.566 370.457C541.212 370.995 541.632 371.666 541.726 372.491C541.986 374.792 540.747 376.092 539.362 377.738C537.698 377.924 537.03 377.611 535.661 376.779C534.994 375.901 534.69 375.441 534.546 374.313C534.28 372.238 535.409 370.876 536.622 369.373Z"/>
	<path fill="#74868C" d="M554.785 360.433C556.3 360.831 557.952 361.113 558.738 362.669C559.266 363.714 559.297 364.633 558.977 365.724C558.458 367.495 557.163 368.308 555.621 369.117C554.607 368.696 553.41 368.259 552.668 367.413C551.894 366.529 551.337 365.486 551.517 364.288C551.821 362.274 553.227 361.466 554.785 360.433Z"/>
	<path fill="#74868C" d="M341.736 621.968C343.218 621.861 344.985 621.601 346.243 622.595C347.186 623.34 347.509 624.256 347.446 625.439C347.364 626.994 346.159 628.115 345.16 629.173C343.493 629.21 341.698 629.341 340.309 628.229C339.437 627.531 339.101 626.683 339.187 625.584C339.307 624.055 340.704 622.955 341.736 621.968Z"/>
	<path fill="#74868C" d="M700.229 622.19C701.658 622.401 702.769 622.643 703.904 623.589C705.165 624.639 705.786 625.845 705.811 627.495C705.835 629.107 704.903 629.995 703.89 631.092C703.119 631.089 702.273 631.106 701.52 630.927C700.4 630.66 699.196 629.78 698.794 628.683C697.933 626.333 699.156 624.2 700.229 622.19Z"/>
	<path fill="#74868C" d="M499.228 334.459C500.384 334.474 501.825 334.376 502.847 334.994C503.857 335.604 504.72 336.871 504.874 338.036C505.148 340.115 504.202 341.312 502.867 342.703C501.396 342.597 499.578 342.628 498.45 341.531C497.498 340.605 497.027 339.655 497.121 338.307C497.23 336.729 498.233 335.583 499.228 334.459Z"/>
	<path fill="#74868C" d="M598.169 389.845C599.711 389.926 601.586 390.118 602.731 391.313C603.641 392.264 604.075 393.127 604.022 394.473C603.96 396.012 602.825 396.97 601.785 397.929C600.467 398.068 599.109 398.026 597.93 397.348C596.806 396.702 596.14 395.78 596.002 394.48C595.781 392.392 596.862 391.247 598.169 389.845Z"/>
	<path fill="#74868C" d="M531.363 351.783C532.785 352.219 534.174 352.635 535.295 353.664C536.005 354.316 536.511 355.265 536.499 356.235C536.469 358.62 534.817 359.81 533.186 361.289C531.641 360.94 530.702 360.267 529.761 359.013C528.83 357.774 528.551 356.252 528.9 354.742C529.237 353.292 530.257 352.621 531.363 351.783Z"/>
	<path fill="#74868C" d="M721.662 584.756C720.895 589.121 719.886 593.563 719.398 597.961C717.428 596.775 716.04 595.749 715.539 593.37C715.071 591.147 715.408 588.945 716.796 587.117C718.151 585.332 719.505 584.968 721.662 584.756Z"/>
	<path fill="#74868C" d="M625.834 392.894C626.695 392.885 627.672 392.824 628.516 392.996C629.885 393.275 630.428 394.108 631.202 395.163C631.665 397.861 630.76 399.336 629.294 401.52C627.908 401.584 626.65 401.618 625.465 400.772C624.417 400.024 623.791 398.991 623.712 397.695C623.584 395.598 624.529 394.365 625.834 392.894Z"/>
	<path fill="#74868C" d="M518.28 343.339C519.502 343.452 521.097 343.463 522.146 344.159C523.199 344.857 523.773 345.619 523.927 346.869C524.208 349.155 522.886 350.731 521.608 352.459C520.513 352.429 519.677 352.439 518.683 351.889C517.413 351.186 516.831 350.191 516.556 348.801C516.132 346.659 517.127 345.034 518.28 343.339Z"/>
	<path fill="#74868C" d="M666.814 740.998C666.014 740.712 666.388 740.786 665.502 740.725C663.853 740.61 662.809 740.59 661.38 739.724C660.816 738.749 660.628 738.421 660.7 737.247C660.786 735.842 661.659 733.984 662.865 733.226C663.878 732.59 665.031 732.542 666.124 732.99C667.654 733.617 668.475 735.609 669.202 736.965C668.471 738.263 667.755 739.862 666.814 740.998Z"/>
	<path fill="#74868C" d="M375.376 773.495C376.789 771.592 377.787 769.778 380.306 769.375C381.304 769.215 382.041 769.419 382.989 769.751C383.792 770.624 384.28 771.034 384.272 772.323C384.263 773.97 383.533 775.601 382.258 776.618C381.804 776.981 381.326 777.313 380.86 777.659C380.247 778.115 379.885 778.496 379.469 779.132C377.907 777.672 376.619 775.269 375.376 773.495Z"/>
	<path fill="#74868C" d="M704.585 591.826C706.232 591.836 708.107 591.762 709.556 592.69C710.257 593.14 710.746 593.703 710.957 594.501C711.545 596.716 710.366 598.313 709.275 600.136C707.907 600.416 705.982 600.599 704.755 599.829C703.933 599.313 703.566 598.746 703.274 597.858C702.496 595.489 703.475 593.866 704.585 591.826Z"/>
	<path fill="#74868C" d="M682.166 652.397C684.206 652.352 685.499 652.511 687.175 653.744C687.573 654.48 687.914 654.851 687.904 655.721C687.88 657.931 686.567 659.187 685.15 660.702C684.595 660.835 683.834 661.072 683.246 661.073C681.934 661.074 681.264 660.588 680.285 659.793C679.809 658.915 679.503 658.319 679.514 657.282C679.54 654.929 680.571 653.926 682.166 652.397Z"/>
	<path fill="#74868C" d="M520.592 864.374C521.921 864.321 523.171 864.29 524.365 864.973C525.714 865.744 526.671 866.849 526.879 868.446C527.158 870.581 526.12 871.911 524.864 873.46C523.649 873.514 522.138 873.561 521.035 872.979C519.853 872.356 519.117 871.611 518.857 870.257C518.425 868.007 519.495 866.235 520.592 864.374Z"/>
	<path fill="#74868C" d="M426.481 770.856C427.933 770.909 429.365 771.045 430.514 772.044C431.48 772.884 431.918 773.957 431.796 775.233C431.592 777.365 430.272 778.565 428.724 779.862C427.017 779.72 425.519 779.565 424.243 778.252C423.335 777.317 422.889 776.193 423.1 774.888C423.435 772.814 424.865 771.897 426.481 770.856Z"/>
	<path fill="#74868C" d="M440.754 809.465C443.062 809.285 444.476 809.165 446.373 810.732C446.747 811.622 447.033 811.971 446.929 812.962C446.688 815.244 445.028 816.515 443.363 817.877C442.954 817.984 442.711 818.078 442.252 818.034C441.06 817.921 439.648 817.372 438.886 816.422C438.189 815.553 438.051 814.409 438.142 813.336C438.296 811.527 439.494 810.583 440.754 809.465Z"/>
	<path fill="#74868C" d="M324.749 606.956C326.521 606.828 328.665 606.892 329.959 608.328C330.726 609.179 330.888 610.036 330.85 611.133C330.786 612.994 329.542 614.176 328.317 615.412C326.558 615.57 324.559 615.55 323.196 614.217C322.295 613.335 321.904 612.041 322.087 610.802C322.342 609.067 323.545 608.084 324.749 606.956Z"/>
	<path fill="#74868C" d="M473.638 820.821C475.2 821.103 476.781 821.59 477.83 822.872C478.689 823.923 478.767 824.974 478.475 826.254C477.978 828.437 476.091 829.329 474.287 830.266C472.455 829.895 471.411 829.319 470.172 827.924C469.792 826.94 469.649 826.436 469.825 825.361C470.198 823.092 471.872 821.991 473.638 820.821Z"/>
	<path fill="#74868C" d="M333.693 642.494C335.154 642.832 336.652 643.26 337.622 644.496C338.364 645.443 338.649 646.656 338.321 647.823C337.761 649.812 336.115 650.755 334.411 651.651C333.882 651.518 333.348 651.399 332.832 651.222C331.394 650.73 329.948 649.431 329.432 647.974C329.03 646.836 329.201 645.706 329.823 644.686C330.646 643.338 332.289 642.934 333.693 642.494Z"/>
	<path fill="#74868C" d="M316.311 623.634C318.509 623.29 320.565 623.125 322.578 624.287C323.659 624.912 324.413 625.608 324.653 626.88C324.94 628.398 323.932 629.595 323.133 630.773C322.099 631.336 320.662 632.095 319.439 631.998C318.149 631.897 317.237 631.521 316.453 630.446C315.223 628.761 315.797 625.506 316.311 623.634Z"/>
	<path fill="#74868C" d="M401.334 764.065C402.063 764.02 402.793 763.975 403.523 763.973C405.037 763.97 406.515 764.535 407.444 765.803C408.118 766.723 408.259 767.591 408.12 768.684C407.871 770.645 406.516 771.636 405.039 772.72C403.17 772.67 401.077 772.14 399.821 770.628C398.96 769.592 398.542 768.568 398.779 767.204C399.054 765.625 400.128 764.916 401.334 764.065Z"/>
	<path fill="#74868C" d="M693.13 636.441C694.99 636.345 696.543 636.429 697.979 637.781C699.007 638.748 699.366 639.911 699.404 641.287C699.461 643.374 698.278 644.866 696.847 646.213C695.232 646.211 693.734 645.924 692.459 644.858C691.248 643.845 690.714 642.465 690.773 640.919C690.848 638.952 691.804 637.786 693.13 636.441Z"/>
	<path fill="#74868C" d="M503.522 838.9C505.022 839.349 506.421 840.059 507.319 841.4C508.085 842.546 508.179 843.654 507.855 844.966C507.326 847.11 505.39 848.168 503.618 849.169C502.15 848.597 500.883 848.025 499.955 846.656C499.144 845.458 498.798 844.083 499.278 842.68C499.986 840.609 501.657 839.751 503.522 838.9Z"/>
	<path fill="#74868C" d="M478.492 838.469C480.34 838.287 482.047 838.109 483.713 839.134C484.807 839.807 485.586 840.719 485.798 842.026C486.152 844.211 485.08 845.611 483.833 847.233C483.685 847.262 483.537 847.293 483.388 847.319C481.388 847.681 479.797 847.651 478.106 846.356C477.021 845.527 476.474 844.395 476.394 843.039C476.276 841.02 477.242 839.897 478.492 838.469Z"/>
	<path fill="#74868C" d="M522.453 835.946C523.89 835.907 525.421 835.78 526.697 836.578C527.737 837.228 528.435 838.195 528.577 839.428C528.873 842.003 527.264 844.032 525.645 845.808C523.757 845.712 522.231 845.649 520.817 844.227C519.665 843.068 519.308 841.904 519.446 840.301C519.625 838.223 520.918 837.117 522.453 835.946Z"/>
	<path fill="#74868C" d="M501.994 821.337C503.906 821.508 505.827 821.803 507.196 823.3C508.07 824.254 508.356 825.424 508.135 826.686C507.739 828.94 506.246 829.864 504.495 831.066C502.65 831.034 501.02 830.94 499.599 829.564C498.805 828.796 498.448 827.841 498.498 826.746C498.615 824.154 500.165 822.918 501.994 821.337Z"/>
	<path fill="#74868C" d="M656.525 710.38C658.397 710.409 660.038 710.511 661.506 711.828C662.538 712.755 662.855 713.748 662.836 715.105C662.803 717.374 661.146 718.745 659.589 720.114C657.589 719.868 655.499 719.494 654.169 717.802C653.355 716.766 652.908 715.741 653.127 714.4C653.467 712.311 654.889 711.411 656.525 710.38Z"/>
	<path fill="#74868C" d="M477.201 861.901C479.283 861.872 481.146 861.808 482.923 863.077C483.976 863.828 484.727 864.905 484.812 866.231C484.947 868.327 483.865 869.997 482.63 871.564C480.583 871.638 479.061 871.561 477.35 870.274C476.192 869.404 475.406 868.266 475.254 866.802C475.036 864.705 475.942 863.423 477.201 861.901Z"/>
	<path fill="#74868C" d="M387.371 789.452C389.148 787.214 390.487 785.03 393.599 784.744C395.021 784.613 396.573 784.904 397.614 785.945C398.359 786.689 398.623 787.739 398.499 788.771C398.345 790.06 397.689 791.459 396.669 792.28C395.563 793.172 393.698 793.447 392.329 793.754L391.615 794.597C390.062 793.021 388.739 791.19 387.371 789.452Z"/>
	<path fill="#74868C" d="M459.791 842.043C461.373 842.329 462.719 843.002 463.647 844.345C464.473 845.541 464.623 846.816 464.348 848.23C463.954 850.256 462.412 851.47 460.78 852.514C459.884 852.358 458.856 852.235 458.033 851.816C456.656 851.115 455.283 849.283 455.018 847.754C454.783 846.397 455.02 845.029 455.888 843.932C456.981 842.55 458.169 842.36 459.791 842.043Z"/>
	<path fill="#74868C" d="M416.528 804.362C416.762 804.377 416.996 804.387 417.23 804.405C418.979 804.537 420.754 804.944 421.82 806.49C422.659 807.706 422.864 808.746 422.671 810.202C422.386 812.353 420.82 813.608 419.189 814.81C417.456 814.44 415.832 813.878 414.531 812.609C413.489 811.592 412.945 810.276 413.112 808.814C413.366 806.588 414.864 805.582 416.528 804.362Z"/>
	<path fill="#74868C" d="M658.972 648.93Q659.676 649.053 660.374 649.201C662.343 649.629 663.682 650.283 664.733 652.086C665.41 653.248 665.459 654.421 665.015 655.683C664.318 657.659 662.921 658.23 661.134 659.022C659.037 658.523 657.211 658.141 655.907 656.258C655.156 655.174 654.788 653.992 655.152 652.677C655.719 650.628 657.159 649.762 658.972 648.93Z"/>
	<path fill="#74868C" d="M667.4 669.512C669.357 669.3 670.812 669.099 672.552 670.261C673.884 671.151 674.675 672.312 674.839 673.949C675.072 676.266 673.974 677.601 672.654 679.34C670.815 679.473 669.203 679.611 667.587 678.538C666.246 677.646 665.555 676.415 665.339 674.816C665.055 672.719 666.128 671.04 667.4 669.512Z"/>
	<path fill="#74868C" d="M663.276 689.504C665.3 689.683 667.002 689.76 668.516 691.282C669.57 692.342 670.096 693.61 669.889 695.113C669.592 697.268 668.233 698.394 666.654 699.677C664.627 699.621 662.758 699.47 661.234 697.96C660.326 697.061 659.906 695.825 660.012 694.559C660.206 692.244 661.677 690.968 663.276 689.504Z"/>
	<path fill="#74868C" d="M606.435 770.989C608.585 771.593 610.581 772.089 611.723 774.237C612.313 775.346 612.292 776.5 611.826 777.648C610.939 779.836 609.075 780.499 607.077 781.421C605.078 780.976 603.164 780.336 602.091 778.439C601.403 777.224 601.458 776.083 601.883 774.797C602.588 772.661 604.558 771.837 606.435 770.989Z"/>
	<path fill="#74868C" d="M675.044 624.94C676.835 624.902 678.993 625.062 680.282 626.504C681.19 627.52 681.635 628.58 681.503 629.959C681.245 632.651 679.532 633.924 677.487 635.371L676.849 635.292C674.935 635.037 672.939 634.638 671.84 632.86C671.074 631.62 670.949 630.749 671.254 629.328C671.716 627.176 673.314 626.072 675.044 624.94Z"/>
	<path fill="#74868C" d="M448.963 827.326C450.983 827.299 453.224 827.32 454.814 828.787C455.85 829.743 456.407 830.781 456.344 832.224C456.25 834.346 454.871 835.782 453.522 837.252C453.053 837.332 452.584 837.419 452.11 837.463C450.401 837.621 448.691 837.394 447.436 836.087C446.415 835.024 445.961 833.873 445.994 832.407C446.05 829.98 447.292 828.876 448.963 827.326Z"/>
	<path fill="#74868C" d="M408.872 785.447C410.779 785.348 413.093 785.386 414.578 786.801C415.486 787.666 415.999 788.655 415.961 789.932C415.88 792.682 414.071 794.257 412.099 795.885C411.135 796.005 410.093 796.19 409.124 795.999C407.897 795.758 406.746 794.937 406.081 793.885C405.331 792.7 405.182 791.297 405.456 789.945C405.905 787.733 407.039 786.634 408.872 785.447Z"/>
	<path fill="#74868C" d="M678.327 596.548C678.788 596.523 679.249 596.495 679.711 596.489C681.733 596.465 683.239 596.908 684.652 598.385C685.708 599.489 686.266 600.843 686.026 602.396C685.697 604.516 684.187 605.621 682.582 606.797C682.401 606.817 682.222 606.845 682.041 606.856C679.945 606.985 677.615 606.539 676.129 604.928C675.226 603.949 674.85 602.62 674.999 601.308C675.259 599.023 676.69 597.939 678.327 596.548Z"/>
	<path fill="#74868C" d="M692.553 571.918C694.379 571.748 696.355 571.797 697.739 573.181C698.893 574.335 699.338 575.677 699.207 577.279C698.999 579.819 697.629 581.349 695.803 582.97C694.942 583.005 694.022 583.078 693.171 582.912C691.87 582.658 690.565 581.766 689.794 580.694C688.937 579.504 688.723 578.071 688.963 576.643C689.375 574.193 690.635 573.278 692.553 571.918Z"/>
	<path fill="#74868C" d="M433.332 787.007C435.771 786.84 437.774 786.565 439.689 788.371C440.88 789.494 441.272 790.806 441.187 792.411C441.051 795.01 439.085 796.721 437.173 798.164C434.756 798.127 432.625 797.589 431.023 795.645C430.158 794.597 429.821 793.245 429.962 791.911C430.206 789.603 431.699 788.449 433.332 787.007Z"/>
	<path fill="#FEFEFE" d="M674.609 455.871C677.033 460.146 679.309 471.924 681.921 477.923C690.574 478.124 699.015 477.737 707.642 477.13C699.902 481.25 692.192 485.648 684.873 490.478C686.78 498.042 690.431 505.775 693.182 513.091C687.178 508.582 681.811 503.284 675.631 498.962C672.362 498.781 659.554 511.996 655.882 514.619C659.18 507.104 661.9 499.356 664.533 491.589C657.305 487.293 651.122 482.001 643.54 478.074L668.495 478.082C671.087 470.853 672.795 463.322 674.609 455.871Z"/>
	<path fill="#FEFEFE" d="M377.979 416.762C382.271 421.584 384.692 433.334 387.458 439.599C394.34 438.345 401.733 438.539 408.714 438.431C403.14 443.085 397.51 447.458 391.116 450.931C394.268 457.519 396.872 464.446 399.177 471.373C393.516 467.451 387.775 463.548 381.838 460.055C381.557 459.956 381.286 459.829 380.997 459.759C377.172 458.83 365.849 469.36 361.644 471.504C363.325 464.454 366.033 457.593 368.187 450.667C362.495 446.263 356.107 442.867 350.38 438.495C357.218 438.418 364.071 438.556 370.911 438.605Q374.349 427.652 377.979 416.762Z"/>
	<path fill="#FEFEFE" d="M538.166 759.362C540.075 761.458 544.074 778.323 545.33 782.444C553.402 782.699 561.524 782.566 569.6 782.593C562.815 787.133 555.641 791.087 548.992 795.845C552.217 803.683 555.452 811.626 558.207 819.639C551.991 814.364 546.025 808.735 539.914 803.331C536.222 803.651 523.284 815.256 519.749 818.131C522.015 810.331 525.008 802.726 527.487 794.984C520.143 791.392 513.237 786.208 506.127 782.068C514.638 782.076 523.175 782.602 531.704 782.644Q534.793 770.964 538.166 759.362Z"/>
	<path fill="#74868C" d="M610.668 565.002C614.951 566.69 618.023 571.522 619.741 575.606C620.654 577.777 620.774 580.075 620.866 582.397C621.256 592.232 621.018 602.147 621.02 611.991L621.117 663.453L621.557 705.163C621.645 712.258 622.017 719.473 621.715 726.56C621.588 729.52 621.127 731.993 619.926 734.731C617.458 740.355 613.389 744.197 607.633 746.406Q605.942 747.066 604.167 747.45Q602.393 747.834 600.58 747.933C590.136 748.595 579.37 748.115 568.888 748.126L517.953 748.242L469.065 748.096C460.639 748.076 452.126 748.302 443.71 747.947C440.181 747.798 436.097 747.702 432.824 746.272C426.267 743.405 423.484 738.274 421.15 731.87C424.97 733.59 428.53 734.478 432.703 734.717C438.329 735.04 444.104 734.594 449.748 734.552L483.538 734.431Q524.338 734.592 565.136 734.285C573.782 734.204 588.432 735.34 596.351 733.228C601.832 731.766 606.57 727.341 609.233 722.438C611.077 719.042 611.74 715.537 612.052 711.741C612.762 703.104 612.476 694.259 612.479 685.597L612.448 644.241L612.421 603.617C612.436 591.552 613.936 576.592 610.668 565.002Z"/>
	<path fill="#263544" d="M427.285 550.714C427.183 529.966 425.067 495.707 431.651 477.178Q431.999 476.208 432.371 475.246Q432.742 474.284 433.138 473.332Q433.533 472.38 433.952 471.438Q434.37 470.496 434.812 469.565Q435.254 468.633 435.719 467.713Q436.184 466.793 436.671 465.885Q437.159 464.976 437.669 464.08Q438.178 463.184 438.71 462.301Q439.242 461.418 439.795 460.548Q440.349 459.678 440.924 458.822Q441.498 457.967 442.094 457.125Q442.69 456.284 443.306 455.458Q443.922 454.631 444.559 453.82Q445.196 453.009 445.852 452.215Q446.509 451.42 447.184 450.641Q447.86 449.863 448.555 449.101Q449.25 448.34 449.964 447.596Q450.677 446.852 451.409 446.126Q452.141 445.399 452.89 444.692Q453.64 443.984 454.406 443.295Q455.173 442.605 455.957 441.936Q456.74 441.266 457.54 440.615Q458.34 439.965 459.156 439.334Q459.971 438.704 460.802 438.094Q461.634 437.484 462.479 436.895Q463.325 436.305 464.185 435.737Q465.046 435.169 465.919 434.622Q466.793 434.075 467.681 433.55Q468.568 433.025 469.468 432.522Q470.368 432.019 471.28 431.539Q472.192 431.058 473.116 430.601Q474.039 430.143 474.974 429.708Q475.92 429.272 476.876 428.859Q477.832 428.447 478.799 428.058Q479.765 427.669 480.74 427.304Q481.716 426.939 482.7 426.598Q483.684 426.257 484.676 425.94Q485.668 425.623 486.668 425.331Q487.668 425.039 488.674 424.772Q489.681 424.504 490.694 424.262Q491.707 424.019 492.725 423.801Q493.744 423.584 494.767 423.391Q495.791 423.199 496.819 423.031Q497.847 422.864 498.879 422.722Q499.911 422.581 500.946 422.464Q501.981 422.348 503.018 422.257Q504.056 422.166 505.095 422.1Q506.135 422.035 507.176 421.995Q508.216 421.955 509.258 421.941Q510.299 421.927 511.341 421.939Q512.382 421.95 513.423 421.987Q514.464 422.024 515.503 422.087Q516.543 422.15 517.581 422.238Q518.619 422.326 519.654 422.44Q520.689 422.554 521.721 422.693Q522.754 422.832 523.782 422.997Q524.811 423.161 525.835 423.351Q526.859 423.541 527.878 423.756Q528.897 423.971 529.91 424.211Q530.924 424.451 531.931 424.716Q532.938 424.98 533.939 425.27Q534.939 425.559 535.932 425.874Q536.926 426.188 537.911 426.526Q538.896 426.864 539.872 427.227C565.019 436.547 581.925 455.893 592.815 479.822C597.97 482.952 601.333 494.331 602.712 499.857C605.238 509.981 604.552 520.746 604.607 531.11Q604.691 544.098 604.989 557.083Q607.893 560.996 610.668 565.002C613.936 576.592 612.436 591.552 612.421 603.617L612.448 644.241L612.479 685.597C612.476 694.259 612.762 703.104 612.052 711.741C611.74 715.537 611.077 719.042 609.233 722.438C606.57 727.341 601.832 731.766 596.351 733.228C588.432 735.34 573.782 734.204 565.136 734.285Q524.338 734.592 483.538 734.431L449.748 734.552C444.104 734.594 438.329 735.04 432.703 734.717C428.53 734.478 424.97 733.59 421.15 731.87C417.04 728.944 413.385 725.721 411.124 721.088C410.225 719.246 409.618 717.505 409.477 715.443C409.028 708.86 409.414 702.004 409.439 695.398L409.468 659.906C409.469 631.394 408.699 602.693 409.52 574.203C409.591 571.755 409.543 568.786 410.456 566.478C410.54 566.265 410.637 566.057 410.726 565.846C411.181 564.762 411.635 563.691 412.181 562.649C415.435 556.445 420.732 552.725 427.285 550.714Z"/>
	<path fill="#74868C" d="M592.815 479.822C597.97 482.952 601.333 494.331 602.712 499.857C605.238 509.981 604.552 520.746 604.607 531.11Q604.691 544.098 604.989 557.083C602.513 555.126 600.153 553.546 597.31 552.165C597.483 535.646 598.64 512.024 596.488 496.092C595.737 490.53 594.325 485.211 592.815 479.822Z"/>
	<path fill="#FEFEFE" d="M438.208 493.165C439.401 486.623 441.128 480.362 443.956 474.32Q444.727 472.65 445.58 471.019Q446.433 469.389 447.366 467.803Q448.299 466.218 449.31 464.68Q450.32 463.142 451.406 461.657Q452.492 460.171 453.65 458.742Q454.808 457.312 456.035 455.941Q457.263 454.57 458.557 453.263Q459.851 451.955 461.208 450.712Q462.565 449.47 463.983 448.297Q465.4 447.124 466.874 446.022Q468.348 444.921 469.874 443.894Q471.401 442.867 472.977 441.917Q474.552 440.967 476.173 440.096Q477.794 439.226 479.456 438.437Q481.118 437.648 482.818 436.942Q484.517 436.236 486.249 435.616Q487.918 435.004 489.615 434.476Q491.312 433.949 493.033 433.507Q494.754 433.064 496.496 432.709Q498.237 432.353 499.994 432.085Q501.751 431.817 503.519 431.638Q505.287 431.458 507.062 431.367Q508.837 431.276 510.614 431.274Q512.391 431.272 514.167 431.358Q515.942 431.445 517.71 431.62Q519.479 431.796 521.236 432.06Q522.994 432.323 524.736 432.675Q526.478 433.026 528.201 433.464Q529.923 433.902 531.622 434.425Q533.32 434.949 534.99 435.557Q536.66 436.165 538.298 436.856Q539.935 437.546 541.536 438.318C559.903 447.073 574.488 462.126 581.274 481.455L580.464 481.563C577.239 478.03 574.91 473.779 571.66 470.183C555.531 452.334 537.254 443.053 512.965 441.978C495.441 441.203 476.762 446.921 463.757 458.982C456.277 465.919 450.13 475.102 446.065 484.431C444.114 488.906 442.593 493.6 440.521 497.99C440.463 498.113 440.446 498.251 440.409 498.382L440.663 498.68C439.647 497.966 438.842 494.477 438.208 493.165Z"/>
	<path fill="#74868C" d="M467.872 550.511Q467.964 534.682 467.76 518.854C467.669 511.509 467.025 503.849 468.182 496.569C469.801 486.376 475.252 476.893 483.699 470.885C493.78 463.714 507.078 461.541 519.146 463.67C531.365 465.825 541.27 472.93 548.362 482.93C544.343 481.269 540.517 478.81 536.416 477.42C526.422 474.032 511.089 475.749 501.47 479.78C490.857 484.229 482.638 491.81 478.371 502.581C474.306 512.842 474.955 523.579 474.834 534.398C474.774 539.773 474.462 545.142 474.411 550.515L467.872 550.511Z"/>
	<path fill="#FEFEFE" d="M432.52 723.035C428.359 722.229 423.714 720.666 421.284 716.935C420.137 715.175 419.908 713.648 419.812 711.566C419.4 702.618 419.864 693.425 419.879 684.458L419.869 630.343L419.879 592.354C419.893 586.277 419.122 578.668 420.439 572.762C421.366 568.604 423.8 564.816 427.577 562.712C429.538 561.619 431.625 561.2 433.849 561.103C458.271 560.04 483.935 560.944 508.489 560.893C520.446 560.869 587.146 559.317 593.075 561.436C597.152 562.894 599.005 566.705 600.665 570.374C596.944 570.415 592.986 570.199 589.318 570.79C589.162 570.821 589.006 570.855 588.849 570.884C579.746 572.568 557.64 571.517 547.063 571.521L472.538 571.486C460.393 571.469 447.688 570.687 435.591 571.537C434.274 571.63 430.773 571.88 430.033 573.025C428.993 574.634 429.103 578.596 429.033 580.527C428.257 601.95 428.922 623.604 428.905 645.052C428.888 667.262 428.151 689.9 429.408 712.058C429.574 715.946 429.879 718.694 431.963 722.1C432.082 722.293 432.193 722.491 432.309 722.686L432.52 723.035Z"/>
	<path fill="#F6C85C" d="M589.318 570.79C592.986 570.199 596.944 570.415 600.665 570.374C601.557 575.326 600.979 580.987 600.97 586.044L600.985 616.092L601.082 679.916C601.073 689.722 601.523 699.77 601.008 709.552C600.869 712.189 600.424 715.59 598.881 717.802C597.002 720.494 593.785 722.404 590.56 722.853C585.149 723.606 579.135 723.093 573.665 723.067L543.171 722.982L432.52 723.035L432.309 722.686C432.193 722.491 432.082 722.293 431.963 722.1C429.879 718.694 429.574 715.946 429.408 712.058L588.89 711.98L589.025 609.183C589.076 598.88 587.844 580.163 589.318 570.79Z"/>
	<path fill="#F6C85C" d="M438.208 493.165C438.842 494.477 439.647 497.966 440.663 498.68L440.409 498.382C440.446 498.251 440.463 498.113 440.521 497.99C442.593 493.6 444.114 488.906 446.065 484.431C450.13 475.102 456.277 465.919 463.757 458.982C476.762 446.921 495.441 441.203 512.965 441.978C537.254 443.053 555.531 452.334 571.66 470.183C574.91 473.779 577.239 478.03 580.464 481.563L581.274 481.455C583.308 486.936 585.197 492.354 586.149 498.144C587.37 505.575 587.027 513.256 587.028 520.767L587.008 550.542L567.501 550.568C567.594 520.547 572.712 492.827 549.16 469.324C538.758 458.943 525.529 452.9 510.736 452.942C496.078 452.983 481.511 457.676 471.079 468.284C456.134 483.481 456.879 498.685 456.957 518.536L457.067 550.532C450.375 550.542 443.677 550.619 436.986 550.553C436.884 531.993 435.606 511.501 438.208 493.165Z"/>
	<path fill="#8C9DA3" d="M474.411 550.515C474.462 545.142 474.774 539.773 474.834 534.398C474.955 523.579 474.306 512.842 478.371 502.581C482.638 491.81 490.857 484.229 501.47 479.78C511.089 475.749 526.422 474.032 536.416 477.42C540.517 478.81 544.343 481.269 548.362 482.93C558.715 496.239 558.634 511.096 558.478 527.09Q558.469 538.962 558.054 550.826L474.411 550.515Z"/>
	<path fill="#FAD971" d="M589.318 570.79C587.844 580.163 589.076 598.88 589.025 609.183L588.89 711.98L429.408 712.058C428.151 689.9 428.888 667.262 428.905 645.052C428.922 623.604 428.257 601.95 429.033 580.527C429.103 578.596 428.993 574.634 430.033 573.025C430.773 571.88 434.274 571.63 435.591 571.537C447.688 570.687 460.393 571.469 472.538 571.486L547.063 571.521C557.64 571.517 579.746 572.568 588.849 570.884C589.006 570.855 589.162 570.821 589.318 570.79Z"/>
	<path fill="#263544" d="M508.252 594.1C510.717 593.845 513.467 593.811 515.919 594.178C523.132 595.255 529.346 599.231 533.643 605.065C538.116 611.139 540.289 619.153 539.025 626.643C537.697 634.515 533.049 640.422 526.785 645.011Q531.156 670.624 534.709 696.363C528.569 696.555 522.394 696.466 516.25 696.504L490.37 696.477C493.558 679.378 495.101 662.058 498.404 644.927Q496.808 644.12 495.263 643.219C490.157 640.185 486.728 634.186 485.379 628.535C483.57 620.956 484.776 612.767 489.029 606.187C493.555 599.184 500.34 595.755 508.252 594.1Z"/>
	<path fill="#74868C" d="M508.963 603.091C510.985 602.929 513.147 602.761 515.151 603.127Q516.059 603.297 516.946 603.554Q517.833 603.811 518.691 604.152Q519.549 604.494 520.37 604.917Q521.19 605.34 521.966 605.841Q522.743 606.341 523.467 606.915Q524.191 607.488 524.856 608.128Q525.521 608.769 526.121 609.471Q526.721 610.173 527.25 610.93Q527.767 611.685 528.208 612.487Q528.649 613.29 529.009 614.131Q529.37 614.973 529.646 615.846Q529.922 616.718 530.112 617.614Q530.301 618.509 530.402 619.419Q530.503 620.329 530.515 621.244Q530.527 622.16 530.449 623.072Q530.371 623.984 530.204 624.884C528.744 632.49 523.418 636.309 517.428 640.347C519.176 656.228 521.845 672.04 524.195 687.842L516.235 687.884L500.687 687.879C503.277 672.534 506.825 655.19 506.566 639.695C501.107 636.385 495.738 633.029 493.792 626.521C492.447 622.025 493.076 616.838 495.33 612.736C498.258 607.405 503.334 604.683 508.963 603.091Z"/>
</svg>
